<svg width="30" height="18" viewBox="0 0 30 18" fill="none" xmlns="http://www.w3.org/2000/svg">
<path fill-rule="evenodd" clip-rule="evenodd" d="M18.5006 16.0009C18.6332 16.0009 18.7604 15.9482 18.8542 15.8544C18.948 15.7607 19.0006 15.6335 19.0006 15.5009V3.70789L22.1466 6.85489C22.2405 6.94878 22.3679 7.00153 22.5006 7.00153C22.6334 7.00153 22.7607 6.94878 22.8546 6.85489C22.9485 6.76101 23.0013 6.63367 23.0013 6.50089C23.0013 6.36812 22.9485 6.24078 22.8546 6.14689L18.8546 2.14689C18.8082 2.10033 18.753 2.06339 18.6923 2.03818C18.6315 2.01297 18.5664 2 18.5006 2C18.4349 2 18.3697 2.01297 18.309 2.03818C18.2483 2.06339 18.1931 2.10033 18.1466 2.14689L14.1466 6.14689C14.0527 6.24078 14 6.36812 14 6.50089C14 6.63367 14.0527 6.76101 14.1466 6.85489C14.2405 6.94878 14.3679 7.00153 14.5006 7.00153C14.6334 7.00153 14.7607 6.94878 14.8546 6.85489L18.0006 3.70789V15.5009C18.0006 15.6335 18.0533 15.7607 18.1471 15.8544C18.2408 15.9482 18.368 16.0009 18.5006 16.0009ZM11.5006 2.00089C11.6332 2.00089 11.7604 2.05357 11.8542 2.14734C11.948 2.24111 12.0006 2.36829 12.0006 2.50089V14.2939L15.1466 11.1469C15.2405 11.053 15.3679 11.0003 15.5006 11.0003C15.6334 11.0003 15.7607 11.053 15.8546 11.1469C15.9485 11.2408 16.0013 11.3681 16.0013 11.5009C16.0013 11.6337 15.9485 11.761 15.8546 11.8549L11.8546 15.8549C11.8082 15.9015 11.753 15.9384 11.6923 15.9636C11.6315 15.9888 11.5664 16.0018 11.5006 16.0018C11.4349 16.0018 11.3697 15.9888 11.309 15.9636C11.2483 15.9384 11.1931 15.9015 11.1466 15.8549L7.14663 11.8549C7.05274 11.761 7 11.6337 7 11.5009C7 11.3681 7.05274 11.2408 7.14663 11.1469C7.24052 11.053 7.36786 11.0003 7.50063 11.0003C7.63341 11.0003 7.76074 11.053 7.85463 11.1469L11.0006 14.2939V2.50089C11.0006 2.36829 11.0533 2.24111 11.1471 2.14734C11.2408 2.05357 11.368 2.00089 11.5006 2.00089V2.00089Z" fill="#1F2020"/>
</svg>
