<svg width="30" height="18" viewBox="0 0 30 18" fill="none" xmlns="http://www.w3.org/2000/svg">
<path d="M13.0244 3.07317H16.5366C16.5366 2.60742 16.3516 2.16075 16.0222 1.83142C15.6929 1.50209 15.2462 1.31707 14.7805 1.31707C14.3147 1.31707 13.8681 1.50209 13.5387 1.83142C13.2094 2.16075 13.0244 2.60742 13.0244 3.07317ZM11.7073 3.07317C11.7073 2.6696 11.7868 2.26997 11.9412 1.89712C12.0957 1.52427 12.3221 1.18548 12.6074 0.900111C12.8928 0.614741 13.2316 0.388373 13.6044 0.233931C13.9773 0.0794899 14.3769 0 14.7805 0C15.1841 0 15.5837 0.0794899 15.9565 0.233931C16.3294 0.388373 16.6682 0.614741 16.9535 0.900111C17.2389 1.18548 17.4653 1.52427 17.6197 1.89712C17.7742 2.26997 17.8537 2.6696 17.8537 3.07317H22.9024C23.0771 3.07317 23.2446 3.14255 23.3681 3.26605C23.4916 3.38955 23.561 3.55705 23.561 3.73171C23.561 3.90636 23.4916 4.07386 23.3681 4.19736C23.2446 4.32086 23.0771 4.39024 22.9024 4.39024H21.7434L20.7161 15.0243C20.6373 15.8391 20.2578 16.5953 19.6516 17.1455C19.0454 17.6957 18.2561 18.0003 17.4375 18H12.1235C11.3051 18.0001 10.5159 17.6954 9.90991 17.1452C9.30392 16.5951 8.92455 15.839 8.84576 15.0243L7.81756 4.39024H6.65854C6.48388 4.39024 6.31638 4.32086 6.19288 4.19736C6.06938 4.07386 6 3.90636 6 3.73171C6 3.55705 6.06938 3.38955 6.19288 3.26605C6.31638 3.14255 6.48388 3.07317 6.65854 3.07317H11.7073ZM13.4634 7.2439C13.4634 7.06925 13.394 6.90175 13.2705 6.77825C13.147 6.65475 12.9795 6.58537 12.8049 6.58537C12.6302 6.58537 12.4627 6.65475 12.3392 6.77825C12.2157 6.90175 12.1463 7.06925 12.1463 7.2439V13.8293C12.1463 14.0039 12.2157 14.1714 12.3392 14.2949C12.4627 14.4184 12.6302 14.4878 12.8049 14.4878C12.9795 14.4878 13.147 14.4184 13.2705 14.2949C13.394 14.1714 13.4634 14.0039 13.4634 13.8293V7.2439ZM16.7561 6.58537C16.9308 6.58537 17.0983 6.65475 17.2218 6.77825C17.3453 6.90175 17.4146 7.06925 17.4146 7.2439V13.8293C17.4146 14.0039 17.3453 14.1714 17.2218 14.2949C17.0983 14.4184 16.9308 14.4878 16.7561 14.4878C16.5814 14.4878 16.4139 14.4184 16.2904 14.2949C16.1669 14.1714 16.0976 14.0039 16.0976 13.8293V7.2439C16.0976 7.06925 16.1669 6.90175 16.2904 6.77825C16.4139 6.65475 16.5814 6.58537 16.7561 6.58537ZM10.1567 14.8979C10.204 15.3866 10.4317 15.8402 10.7953 16.1702C11.159 16.5003 11.6325 16.683 12.1235 16.6829H17.4375C17.9285 16.683 18.402 16.5003 18.7656 16.1702C19.1292 15.8402 19.3569 15.3866 19.4043 14.8979L20.4211 4.39024H9.1399L10.1567 14.8979Z" fill="#1F2020"/>
</svg>
